<?xml version="1.0" encoding="UTF-8"?>
<svg id="Calque_1" data-name="Calque 1" xmlns="http://www.w3.org/2000/svg" viewBox="0 0 256 256">
  <defs>
    <style>
      .cls-1 {
        fill: #1a1c2b;
      }
    </style>
  </defs>
  <path class="cls-1" d="M216.1,41.86c-1.99-4.87-9.5-21.48-27.46-31.3-17.31-9.47-36.48-8.34-37.18-5.68-.66,2.54,15.88,4.56,23.27,18.51,3.09,5.83,3.33,12.24,2.28,19.91-2.45,18.02-10.28,26.84-28.93,58.11-12.81,21.48-20.07,37.94-20.07,58.92,0,.03,0,.05,0,.08,0,0,0,0,0,.01,0,0,0-.01-.01-.01,0-.03,0-.05.01-.08-3.68-27.23-12.38-46.24-20.08-58.92-10.64-17.52-25.51-33.09-28.93-58.11-1.04-7.65-.82-14.07,2.28-19.91,7.39-13.95,23.92-15.97,23.27-18.51-.69-2.67-19.86-3.79-37.18,5.68-17.96,9.82-25.47,26.43-27.46,31.3-7.68,18.78-8.21,45.98,5.39,57.09.05.04.09.07.12.1-3.22,5.84,3.41,13.54,3.5,13.63-.87,7.4,3.95,17.31,4.82,16.43-2.2,11.89,5.29,24.68,5.29,25.36.88,31.1,15.42,50.44,15.42,50.44,0,0,26,26.44,32.17,37.9,6.05,11.24,20.81,10.18,21.38,10.14,0,0,0-.36,0-1.04.01.67.01,1.04.01,1.04.59.05,15.33,1.09,21.38-10.14,6.17-11.46,32.17-37.9,32.17-37.9,0,0,14.54-19.34,15.42-50.44,0-.68,7.49-13.47,5.29-25.36.88.88,5.7-9.03,4.82-16.43.1-.1,6.72-7.79,3.5-13.63.03-.03.07-.06.12-.1,13.59-11.11,13.06-38.32,5.38-57.09ZM100.96,171.28c-15.47,3.41-18.35-9.87-18.61-9.96,7.57,2.33,21.57,10.57,22.01,10.83-.18-.05-3.14-.87-3.39-.87ZM155.05,171.28c-.25,0-3.22.82-3.4.87.44-.26,14.44-8.51,22.01-10.83-.26.09-3.15,13.37-18.61,9.96Z"/>
</svg>