<svg xmlns="http://www.w3.org/2000/svg" viewBox="0 0 1080 1080">
  <path fill="#028CEA" d="m710.562 290.741 2.146-.01c2.312-.01 4.624-.003 6.937.003l4.854-.005c3.376-.003 6.752 0 10.129.01 4.329.012 8.657.005 12.986-.007 3.335-.007 6.67-.005 10.004 0 1.596.002 3.193 0 4.79-.005 2.226-.005 4.451.003 6.677.014l3.837.005C776 291 776 291 779 293c.374 2.458.374 2.458.372 5.629l.02 3.65-.025 4.046.01 4.27c.01 3.925-.001 7.85-.014 11.775-.011 4.228-.005 8.456 0 12.683.005 8.288-.005 16.575-.02 24.863-.018 9.642-.02 19.285-.02 28.927-.002 17.2-.018 34.399-.042 51.598a42569.727 42569.727 0 0 0-.043 59.453v3.098l-.001 3.09a84229.22 84229.22 0 0 1-.028 47.69l-.01 17.312c-.005 9.152-.012 18.304-.027 27.457-.007 4.184-.012 8.369-.012 12.553-.001 3.825-.007 7.65-.016 11.476-.002 1.39-.003 2.778-.002 4.167.001 1.878-.005 3.756-.01 5.634l-.004 3.17C779 638 779 638 778 640h-2l-.8 1.8c-1.247 2.286-2.486 3.653-4.395 5.407l-1.908 1.767-2.022 1.838-2.067 1.906a452.398 452.398 0 0 1-11.91 10.563c-3.32 3.006-6.4 6.256-9.503 9.485C741 675 741 675 738.43 676.536c-2.647 1.595-4.18 3.262-6.118 5.651-1.761 2.168-1.761 2.168-3.312 3.813h-2v2a100.743 100.743 0 0 1-5.063 4.25c-3.786 2.969-3.786 2.969-7.417 6.121-5.513 5.065-11.89 8.49-18.395 12.129-6.846 3.855-13.596 7.716-20.087 12.146-3.222 2.14-6.586 3.996-9.976 5.854-5.227 2.902-10.397 5.867-15.507 8.973-3.756 2.245-7.565 4.397-11.37 6.558a410.375 410.375 0 0 0-10.56 6.219c-3.384 2.048-6.8 3.86-10.355 5.586-2.839 1.456-5.575 3.06-8.333 4.664-6.621 3.83-13.357 7.435-20.125 11l-3.08 1.639-2.9 1.517-2.602 1.37C579 777 579 777 576 777c.857-4.518 3.5-6.935 6.625-10.125 4.357-4.566 8.108-9.15 11.605-14.418 2.047-2.841 4.32-5.334 6.707-7.895 4.166-4.468 7.778-9.122 11.31-14.101 2.12-2.977 4.28-5.77 6.753-8.461h2l.773-1.68c3.957-7.484 9.793-14.102 15.098-20.664 2.391-2.983 4.736-6 7.066-9.031l1.264-1.639a449.315 449.315 0 0 0 6.365-8.482c.41-.557.82-1.114 1.24-1.688a1068.58 1068.58 0 0 0 3.381-4.648L658 672h2l.707-1.61c1.688-3.12 3.805-5.85 5.98-8.64l1.364-1.762c2.909-3.732 5.943-7.308 9.101-10.832 3.706-4.324 7.168-8.883 10.54-13.472C689 634 689 634 690.535 632.404c5.544-6.17 5.282-12.075 5.146-20.072-.002-1.37 0-2.741.003-4.112.002-3.7-.034-7.4-.076-11.1-.037-3.874-.04-7.748-.048-11.622-.018-7.328-.068-14.655-.128-21.982-.067-8.346-.1-16.692-.13-25.038-.063-17.16-.168-34.319-.302-51.478a5664.26 5664.26 0 0 0-8.938 8.875l-2.576 2.55-2.45 2.442c-.75.744-1.499 1.487-2.27 2.254-1.829 1.766-1.829 1.766-2.766 3.879h-2l-.766 1.754c-2.82 5.131-7.81 9.084-12.297 12.746-2.35 2-4.165 3.845-6.142 6.174-3.642 4.205-7.495 8.138-11.451 12.045l-2.14 2.128c-2.983 2.967-5.972 5.928-8.961 8.89-2.198 2.18-4.392 4.362-6.587 6.544l-2.011 1.986c-3.872 3.852-7.529 7.825-11.097 11.96-1.82 2.085-3.729 4.053-5.704 5.992l-2.16 2.136-4.368 4.29c-4.128 4.084-8.076 8.25-11.858 12.66-1.73 2.01-3.474 3.931-5.458 5.695h-2l-.807 1.795c-1.217 2.25-2.456 3.698-4.275 5.482l-1.826 1.807-1.905 1.853-1.869 1.842a1372.416 1372.416 0 0 1-3.643 3.576 454.955 454.955 0 0 0-4.343 4.336c-2.213 2.191-4.487 4.261-6.832 6.309-4.068 3.589-8 7.22-11.5 11.375-2 1.625-2 1.625-4.375 1.75-3.644-1.562-6.208-3.994-8.625-7.125v-2h-2c-1.27-1.293-1.27-1.293-2.813-3.188-3.373-3.982-6.974-7.651-10.687-11.312-4.077-4.03-7.986-8.102-11.695-12.477-2.78-3.116-5.774-6.013-8.745-8.944-3.353-3.325-6.499-6.765-9.556-10.36-1.415-1.618-2.89-3.108-4.442-4.594C479 580 479 580 479 578h-2v-2h-2c-1.426-1.449-1.426-1.449-3.09-3.465-3.926-4.617-8.151-8.853-12.473-13.098-5.052-4.963-10.014-9.896-14.437-15.437v-2l-1.797-.777c-2.412-1.34-3.694-2.673-5.453-4.786-3.322-3.941-6.76-7.757-10.246-11.554C426 523 426 523 426 521l-1.637-.617c-3.317-1.941-5.64-4.672-8.176-7.508l-1.616-1.78A784.019 784.019 0 0 1 403 498c-1.434-1.65-2.871-3.295-4.313-4.938l-1.988-2.277c-1.589-1.871-1.589-1.871-3.699-2.785a7546.86 7546.86 0 0 0-.518 53.409c-.052 8.268-.122 16.534-.236 24.801-.1 7.21-.165 14.418-.187 21.628a725.58 725.58 0 0 1-.116 11.442 465.783 465.783 0 0 0-.074 10.792 217.684 217.684 0 0 1-.113 5.802c.084 7.201 1.234 10.837 6.19 16.183l2.711 2.538c2.381 2.444 3.216 4.243 4.343 7.405 1.927 1.145 1.927 1.145 4 2 1.492 1.509 1.492 1.509 2.875 3.266l1.547 1.949L415 651.25l1.578 1.988c2.296 2.916 4.46 5.82 6.484 8.934 2.052 2.994 4.356 5.286 6.938 7.828a230.944 230.944 0 0 1 4.812 6.187c.884 1.164 1.768 2.327 2.653 3.489l1.308 1.721c3.004 3.924 6.127 7.754 9.227 11.603 2.023 2.52 4.043 5.04 6.062 7.562l1.586 1.978a549.751 549.751 0 0 1 7.852 10.022c3.53 4.576 7.321 8.918 11.1 13.288 2.702 3.135 5.336 6.288 7.837 9.587 4.738 6.216 9.967 12.029 15.112 17.905a1202.95 1202.95 0 0 1 3.494 4.013 356.49 356.49 0 0 0 7.562 8.461l1.386 1.501a1342.6 1342.6 0 0 0 3.97 4.265C516 774 516 774 517 777c-2.367.847-3.548 1.18-5.922.23l-2.05-1.265a205.24 205.24 0 0 0-11.024-6.086l-3.193-1.647a7920.71 7920.71 0 0 0-6.485-3.328c-5.687-2.936-11.223-6.003-16.684-9.339-4.763-2.822-9.67-5.38-14.562-7.97-9.01-4.774-17.987-9.583-26.803-14.708a591.088 591.088 0 0 0-9.977-5.586c-6.988-3.848-13.862-7.803-20.624-12.04-3.895-2.42-7.856-4.728-11.813-7.046-15.787-9.255-29.025-18.097-41.02-32.156-2.184-2.44-4.502-4.708-6.843-6.997-3.851-3.792-7.13-7.728-10.36-12.05-1.572-1.929-3.144-3.395-5.078-4.95-2.93-2.4-5.416-4.99-7.875-7.875l-1.988-2.332c-4.132-6.943-3.99-14.974-3.958-22.844l-.01-3.242c-.009-3.55-.003-7.101.003-10.652l-.008-7.593c-.006-6.805.003-13.609.016-20.413.009-4.238.012-8.475.015-12.713.033-37.41.318-74.808 1.118-112.21l.06-2.874c.464-22.331 1.248-44.623 2.426-66.928.571-10.824 1.054-21.65 1.49-32.48l.1-2.451c.194-4.835.386-9.67.577-14.505.166-4.2.335-8.399.503-12.598.325-8.118.648-16.235.969-24.352 4 0 4 0 5.746 1.355l1.691 1.832 1.848 1.958L329 303l2.375 2.375a768.327 768.327 0 0 1 4.652 4.687c4.276 4.327 8.616 8.485 13.246 12.43 1.66 1.45 3.26 2.861 4.727 4.508v2l1.687.625c3.171 1.885 5 4.529 7.313 7.375l3 2v2l1.766.781c2.414 1.317 4.051 2.77 5.984 4.719l1.86 1.844C377 350 377 350 377 352l1.875.75c2.529 1.487 2.843 2.687 4.125 5.25 1.33.672 2.664 1.338 4 2 1.62 1.366 1.62 1.366 3.208 2.95l1.82 1.8 1.925 1.937 2 1.995c1.392 1.39 2.78 2.782 4.166 4.176 2.13 2.141 4.27 4.27 6.412 6.4 1.35 1.35 2.699 2.702 4.047 4.054l1.95 1.939C417 389.77 417 389.77 417 392h2v2h2v2l1.762.773c6.22 3.409 10.875 9.9 15.449 15.215 3.106 3.493 6.456 6.738 9.789 10.012l2.184 2.186a2280.08 2280.08 0 0 0 7.956 7.903c2.689 2.662 5.372 5.329 8.055 7.996 1.419 1.409 2.84 2.816 4.262 4.221 2.057 2.033 4.107 4.072 6.156 6.112l1.941 1.91c1.52 1.52 2.989 3.091 4.446 4.672v2l1.66.637c3.183 1.854 5.372 4.44 7.777 7.175.936 1.05 1.872 2.098 2.81 3.145l1.374 1.545c1.355 1.472 2.79 2.867 4.227 4.26C503 478 503 478 503 480l1.719.73c5.354 2.98 9.687 8.266 13.468 13.02 1.844 2.289 3.886 3.97 6.172 5.8 2.58 2.279 4.733 4.898 6.961 7.512 2.116 2.441 4.362 4.69 6.68 6.938 3.915-1.585 6.543-4.277 9.437-7.25l1.49-1.507c2.366-2.414 4.66-4.845 6.76-7.493 1.872-2.226 3.545-3.848 5.75-5.688 4.193-3.556 7.85-7.52 11.563-11.562 4.194-4.565 8.376-8.875 13.152-12.84 2.262-2.032 4.217-4.25 6.223-6.535 3.002-3.413 6.077-6.51 9.5-9.5 4.328-3.792 8.183-7.893 12.01-12.174 3.703-4.101 7.7-7.743 11.857-11.385 2.668-2.441 4.955-5.074 7.281-7.836 2.994-3.378 6.22-6.517 9.451-9.667a125.258 125.258 0 0 0 7.58-8.11c4.829-5.58 10.084-10.74 15.308-15.945a2255.36 2255.36 0 0 0 5.298-5.305 8389.79 8389.79 0 0 1 3.41-3.406l1.579-1.585c2.973-2.954 6.054-5.628 9.351-8.212a78.413 78.413 0 0 0 3-3.5c3.785-4.454 8.029-8.314 12.38-12.2l1.632-1.468 1.452-1.29c2.016-2.024 3.751-4.311 5.536-6.542h-63c1.087-5.437 2.817-7.35 6.61-11l1.708-1.691A946.676 946.676 0 0 1 659.75 325c1.207-1.187 2.412-2.374 3.617-3.563 2.226-2.193 4.457-4.38 6.695-6.562 3.505-3.422 6.978-6.873 10.368-10.41 9.056-9.36 16.87-13.707 30.132-13.724Z"/>
  <path fill="#1DACEE" d="M703 291c9.466-.046 18.932-.082 28.399-.104 4.395-.01 8.79-.024 13.186-.047 4.24-.022 8.48-.034 12.721-.039 1.62-.003 3.238-.01 4.858-.021a998.56 998.56 0 0 1 6.794-.016l3.91-.014C776 291 776 291 779 293c.374 2.458.374 2.458.372 5.629l.02 3.65a10353.4 10353.4 0 0 1-.025 4.046l.01 4.27c.01 3.925-.001 7.85-.014 11.775-.011 4.228-.005 8.456 0 12.683.005 8.288-.005 16.575-.02 24.863-.018 9.642-.02 19.285-.02 28.927-.002 17.2-.018 34.399-.042 51.598a41863.61 41863.61 0 0 0-.04 50.118l-.001 3.118-.002 6.217v3.098l-.001 3.09a84229.22 84229.22 0 0 1-.028 47.69l-.01 17.312a24707.5 24707.5 0 0 1-.027 27.457c-.007 4.184-.012 8.369-.012 12.553-.001 3.825-.007 7.65-.016 11.476-.002 1.39-.003 2.778-.002 4.167.001 1.878-.005 3.756-.01 5.634l-.004 3.17C779 638 779 638 778 640h-2l-.813 1.875C774 644 774 644 771 646c.633-4.684.633-4.684 2.519-6.31 2.138-2.44 1.86-4.219 1.866-7.432l.028-3.649-.014-4.03a2121.345 2121.345 0 0 0 .034-16.01c0-4.219.016-8.438.03-12.656.023-7.313.035-14.625.04-21.938.006-10.572.029-21.145.056-31.717.043-17.153.073-34.305.095-51.457.02-16.664.048-33.329.084-49.993l.006-3.111.034-15.453c.093-42.748.165-85.496.222-128.244l-2.464.003c-3.08.004-6.161.007-9.242.009l-5.89.007c-11.745.007-23.477-.217-35.216-.519l-5.963-.145A9940.99 9940.99 0 0 1 703 293v-2Z"/>
  <path fill="#0490EA" d="m619 722 3 1-9 12 3 1c.125 4.75.125 4.75-1 7l2.313 1.313c2.268 1.424 3.907 2.72 5.687 4.687l2.375-1.188L639 741c-.09 1.75-.09 1.75-1 4a61.85 61.85 0 0 1-6.563 4l-1.947 1.07a261.922 261.922 0 0 1-11.361 5.836c-2.79 1.434-5.48 3.017-8.192 4.594-6.621 3.83-13.357 7.435-20.125 11l-3.08 1.639-2.9 1.517-2.602 1.37C579 777 579 777 576 777c.857-4.518 3.5-6.935 6.625-10.125 4.357-4.566 8.108-9.15 11.605-14.418 2.047-2.841 4.32-5.334 6.707-7.894 4.165-4.469 7.78-9.117 11.301-14.102 2.117-2.957 4.384-5.712 6.762-8.461Z"/>
  <path fill="#058BE0" d="M462 714c8.207 3.535 13.507 12.87 18.857 19.768 3.47 4.447 7.137 8.649 10.96 12.798 2.346 2.616 4.547 5.319 6.745 8.059 3.307 4.096 6.797 7.792 10.575 11.45 2.958 3.056 5.422 6.449 7.863 9.925l-1 2c-4.312-.942-7.904-2.966-11.75-5.063a539.257 539.257 0 0 0-17.813-9.187c-5.344-2.647-10.562-5.297-15.437-8.75v-2l2.117.438 2.758.562 2.742.563c2.307.497 2.307.497 4.383.437h4l.688 2.875c1 3.264 1 3.264 3.687 4.5 2.824.78 2.824.78 6.625.625l1-2-2.688.438C493 761 493 761 491.488 759.511 488 754.684 488 754.684 488 752l-3-1-1-6-2 4-5-1 2-1-1-1.875c-1.368-2.906-1-4.8-1-8.125l-3-1 2-3-1.75-1.063c-2.423-2.086-3.615-4.226-5.102-7.027-1.667-2.774-3.785-5.06-5.976-7.43C462 716 462 716 462 714Zm10 23 2 1Z"/>
  <path fill="#0BB0F9" d="M698 482h1v144h-1v-7h-2a35798.86 35798.86 0 0 1-.104-51.816c-.01-8.02-.024-16.039-.047-24.059-.02-6.989-.033-13.978-.037-20.967a3445.72 3445.72 0 0 0-.023-11.104c-.017-4.13-.017-8.26-.016-12.39l-.022-3.726.008-3.408-.005-2.96c.254-2.656.891-4.295 2.246-6.57Z"/>
  <path fill="#10B1F4" d="m662 323 2 3-3 4 3-2v2h2l1 3c-1.625 1.125-1.625 1.125-4 2a126.53 126.53 0 0 1-6-2l-3 1c-1.225 3.008-1.225 3.008-2 6l2.302-.013c7.152-.04 14.303-.071 21.455-.09 3.676-.011 7.353-.025 11.03-.048 3.547-.022 7.093-.034 10.64-.039 1.355-.003 2.71-.01 4.065-.021 1.893-.015 3.787-.016 5.681-.016l3.27-.014C713 340 713 340 715 342a105.022 105.022 0 0 1-4 5h-2l-2 5h-2l-1 3a87.917 87.917 0 0 1-5 3 163.192 163.192 0 0 0-4 3c1.417-4.657 4.102-7.43 7.563-10.688 3.668-3.303 3.668-3.303 6.437-7.312h-63c1.125-5.625 1.125-5.625 4.379-8.77l2.04-2.001 2.144-2.041 2.154-2.1A725.11 725.11 0 0 1 662 323Z"/>
  <path fill="#0691E9" d="M319 295c7.537 3.369 13.141 9.994 18.379 16.188 2.32 2.594 4.91 4.631 7.621 6.812 2.972 2.834 5.636 5.64 8 9l-1 2h-4v-2h-4v-2l2-1-2.875-2.313c-2.291-1.842-3.437-3.155-5.125-5.687-2-.042-4-.042-6 0l-2-2 1-1-2-1v-2h-2v2h-5l-3 28h-1c-.025-6.248-.043-12.496-.055-18.744-.005-2.127-.012-4.254-.02-6.382-.013-3.05-.018-6.1-.023-9.151l-.015-2.901v-2.67l-.007-2.361C318 296 318 296 319 295Z"/>
  <path fill="#08A0E9" d="M313 510h1v127h-2c-.907-5.4-1.138-10.586-1.114-16.056v-2.664c0-2.883.008-5.767.016-8.651l.005-6.024c.003-5.268.013-10.537.024-15.806.01-5.383.015-10.766.02-16.149.01-10.55.028-21.1.049-31.65h1l1-30Z"/>
  <path fill="#057FA3" d="m389 483 2 1c1.171 3.513 1.132 6.664 1.114 10.317v2.248c0 2.45-.009 4.902-.016 7.353l-.005 5.099c-.003 4.473-.013 8.946-.024 13.42-.01 4.564-.015 9.13-.02 13.694-.01 8.956-.028 17.913-.049 26.869h-1c-1.626-5.001-2.245-9.183-2.227-14.496v-2.16c0-2.333.016-4.664.032-6.996l.008-4.88c.008-4.263.027-8.526.05-12.789.02-4.357.03-8.714.04-13.072.02-8.535.055-17.071.097-25.607Z"/>
  <path fill="#1CA3EC" d="M777 521h1c.809 27.274 1.111 54.538 1.123 81.822.002 2.434.006 4.867.01 7.301.005 3.864.006 7.728.001 11.592 0 1.442 0 2.884.002 4.326.003 1.981-.002 3.963-.007 5.944l-.002 3.389C779 638 779 638 778 640h-2l-.813 1.875C774 644 774 644 771 646c.25-2.313.25-2.313 1-5l2.014-1.368c2.18-1.453 2.18-1.453 2.494-3.828l.011-2.607.042-2.995-.015-3.283.031-3.46c.03-3.782.031-7.563.032-11.346.015-2.619.032-5.237.05-7.856.041-6.195.061-12.389.074-18.583.016-7.052.055-14.104.095-21.156.082-14.506.137-29.012.172-43.518Z"/>
  <path fill="#0FAEF4" d="M660 395c-1.556 3.82-3.956 6.26-7 9h-2l-.625 2.188c-1.826 3.735-4.118 5.248-7.375 7.812l-1 2h-2l-.688 1.672c-1.7 3.015-3.86 5.14-6.312 7.578l-2.688 2.703C628 430 628 430 626 430l-.688 1.688c-1.69 2.977-3.836 4.948-6.312 7.312l-1.59 1.652c-1.431 1.488-2.918 2.922-4.41 4.348h-2l-.813 1.938C609 449 609 449 606 450v2h-2l-1 3-3-1 1.723-1.688c3.668-3.625 7.275-7.233 10.59-11.187 2.983-3.491 6.276-6.56 9.687-9.625 3.982-3.58 7.655-7.235 11.094-11.34 2.513-2.848 5.203-5.494 7.906-8.16 4.041-3.99 7.928-8.037 11.598-12.379C656.595 395 656.595 395 660 395Z"/>
  <path fill="#1178AE" d="M388 557h1v9l3-1c.025 5.5.043 10.998.055 16.498.005 1.87.012 3.742.02 5.613.013 2.688.018 5.377.023 8.065l.015 2.538c0 3.35-.046 6.085-1.113 9.286h-2v17h-1v-67Z"/>
  <path fill="#089EE2" d="m662 323 2 3-3 4 3-2v2h2l1 3c-1.625 1.125-1.625 1.125-4 2a126.53 126.53 0 0 1-6-2l-3 1c-1.225 3.008-1.225 3.008-2 6l2.302-.013c7.152-.04 14.303-.071 21.455-.09 3.676-.011 7.353-.025 11.03-.048 3.547-.022 7.093-.034 10.64-.039 1.355-.003 2.71-.01 4.065-.021 1.893-.015 3.787-.016 5.681-.016l3.27-.014C713 340 713 340 715 342l-69-1c1.686-3.373 2.691-4.933 5.258-7.453l1.894-1.875 1.973-1.922 1.996-1.969c1.622-1.598 3.248-3.192 4.879-4.781Z"/>
  <path fill="#0481B4" d="M312 458h1c.842 29.27 1.075 58.475.563 87.75l-.04 2.22c-.158 9.01-.333 18.02-.523 27.03h-1c-1.349-39.048-.954-77.943 0-117Z"/>
  <path fill="#0C99DE" d="m593 756 2 1-1.813 2.125c-2.164 2.845-3.683 5.641-5.187 8.875l1.645-.91 2.168-1.153 2.144-1.16C596 764 596 764 599 765c-3.305 3.576-7.23 5.452-11.5 7.688-.772.415-1.544.83-2.34 1.26l-2.254 1.189-2.052 1.084C579 777 579 777 576 777c.581-3.102 1.417-4.809 3.582-7.094l1.576-1.683 1.654-1.723 1.62-1.723A346.987 346.987 0 0 1 593 756Z"/>
  <path fill="#068EEA" d="m388 698 11 2-3 2c-.577 1.964-.577 1.964-.688 4.125L395 710h4l2 5c-4.735-1.7-8.962-4.137-13.313-6.625l-2.244-1.273c-1.816-1.031-3.63-2.066-5.443-3.102l1-3 5 1v-2h2v-2Z"/>
  <path fill="#038AE6" d="M391 365c4.526 3.678 8.394 7.41 12 12l-3 1v-2h-2l-1 6 3 1-1 3h-3v-2h-2v-2h-4l-1-4 3-1v-3l-3-1 1-2h2l-1-6Z"/>
  <path fill="#028FE8" d="M696 619h2c1.385 6.797.35 11.52-2 18h2v-4h4l1-3c1 2 1 2 .063 4.938L702 638v3h-2v-2h-2v2l-5-2v-3l-5 4c-.742-1.7-.742-1.7-1-4 1.617-2.332 1.617-2.332 3.875-4.813C694.454 626.98 696 624.511 696 619Z"/>
  <path fill="#17BEEE" d="M502 762c4.425.433 6.35 3.182 9.188 6.375l2.667 2.96C516 774 516 774 517 777c-2.522.936-3.62 1.157-6.148.11l-2.227-1.36c-2.697-1.61-5.266-3.048-8.125-4.375C498 770 498 770 497 767h5v-5Z"/>
  <path fill="#0693E4" d="M349 675c4.36 3.403 7.777 6.972 11.191 11.328 2.212 2.045 3.86 2.33 6.809 2.672l1-3c1.563 1.188 1.563 1.188 3 3-.313 2.688-.313 2.688-1 5l2.875.938C376 696 376 696 378 697l-1 2 3 1v1c-7.169.624-11.82-4.469-17.145-8.707-5.05-4.253-9.96-8.947-13.855-14.293v-3Z"/>
  <path fill="#0B94EA" d="M406 644c4.821.83 6.706 3.953 9.5 7.688l1.434 1.857a154.184 154.184 0 0 1 6.238 8.74c1.804 2.867 1.804 2.867 4.578 5.465L430 670v2c-2.467-.382-3.686-.635-5.344-2.559l-1.156-1.879c-1.859-2.808-3.195-4.46-6.5-5.562v-3l-6 1 1-3h2c-1.987-3.051-3.942-5.929-6.25-8.75C406 646 406 646 406 644Z"/>
  <path fill="#0876B7" d="M317 319h1l1 14h1c.105 11.382.178 22.666-1 34h-1l-2 13h-1a7904.73 7904.73 0 0 1 2-61Z"/>
  <path fill="#0BAEF6" d="M319 295c3.795 1.491 5.61 3.757 8 7-3 0-3 0-6-2l-.076 2.918c-.095 3.6-.195 7.198-.296 10.797-.043 1.552-.085 3.105-.125 4.658a2515.45 2515.45 0 0 1-.187 6.725l-.05 2.078c-.132 4.354-.58 8.53-1.266 12.824h-1c-.025-6.248-.043-12.496-.055-18.744-.005-2.127-.012-4.254-.02-6.382-.013-3.05-.018-6.1-.023-9.151l-.015-2.901v-2.67l-.007-2.361C318 296 318 296 319 295Z"/>
  <path fill="#0BADF6" d="M391 604h1l-.051 1.86c-.754 14.291-.754 14.291 5.613 26.327l2.504 2.106L402 636v3c-4.576-1.36-5.726-2.907-8-7l-1.55-1.25c-2.195-1.856-3.253-3.098-4.45-5.75-.5-5.995.307-12.048 1-18h2v-3Z"/>
  <path fill="#0793E7" d="M488 584h3l1 4h2l2 5 2.313-.688L501 592c1.813 1.438 1.813 1.438 3 3l-1 3c0 2.53.685 3.854 2 6l3 1-2 3a913.83 913.83 0 0 1-7.375-7.125l-2.117-2.016c-3.807-3.733-6.341-6.492-7.508-11.859l-1-3Z"/>
  <path fill="#11A1E1" d="M514 614c3.186 1.396 5.24 3.046 7.625 5.563 2.42 2.577 2.42 2.577 5.375 4.437l1.238 2.168c2.22 3.567 4.946 6.233 7.95 9.144l1.693 1.667c1.368 1.345 2.743 2.683 4.119 4.021-1.766.707-1.766.707-4 1-1.922-1.363-1.922-1.363-3.75-3.313l-1.86-1.925C531 635 531 635 531 633h-2c-1.41-1.434-1.41-1.434-3.063-3.438C521.88 624.778 517.48 620.39 513 616l1-2Z"/>
  <path fill="#0FA0E9" d="M462 714c10.69 4.605 19.189 19.835 26 29l-2 2-1.207-1.46-1.606-1.915-1.582-1.898c-1.687-1.95-1.687-1.95-4.605-3.727a396.178 396.178 0 0 1-3-5l-2-1a477.871 477.871 0 0 1-2.781-5.02c-1.714-2.784-3.833-5.105-6.047-7.5C462 716 462 716 462 714Z"/>
  <path fill="#0384E1" d="M405 647c4.17 1.043 4.54 1.157 6.75 4.438l1.297 1.87C414 655 414 655 414 657l-2 2h5v3l2 1-7 1-1-3-3-1c-.688-2.063-.688-2.063-1-4h-3l1-9Z"/>
  <path fill="#0694F0" d="m363 338 3 1v2l1.766.781c2.414 1.317 4.051 2.77 5.984 4.719l1.86 1.844C377 350 377 350 377 352l1.875.813C381 354 381 354 383 357l-4 1-1.39-1.645-1.86-2.168-1.828-2.144c-1.846-1.962-3.721-3.5-5.922-5.043l-1 3c-2.063 1.188-2.063 1.188-4 2v-4h2v-4h-4v-2h3l-2-3 1-1Z"/>
  <path fill="#048FEA" d="m471 753 2.117.438 2.758.562 2.742.563c2.307.497 2.307.497 4.383.437h4l.625 2.813c1.74 4.032 3.474 4.444 7.375 6.187l1 3c-4.688-.595-8.424-2.623-12.5-4.875l-1.973-1.066c-1.85-1.006-3.69-2.03-5.527-3.059l-2.969-1.633L471 755v-2Z"/>
  <path fill="#0887DC" d="M554 500c1.125 3.75 1.125 3.75 0 6l3 2v2h-3v-2h-2v2l-4-1c-.787 2.258-.787 2.258-1 5a87.917 87.917 0 0 0 3 5l-1 2-2.313-1.438c-2.65-1.662-2.65-1.662-5.687-2.562 1.295-5.257 3.759-8.264 7.625-11.875l1.563-1.508A432.236 432.236 0 0 1 554 500Z"/>
  <path fill="#078ED9" d="M411 385a158.814 158.814 0 0 1 6 5v2h2v2h2v2l1.938.875C425 398 425 398 426 400l-4 1v5c-3 0-3 0-6-2l.563-2.188c.483-3.108.476-4.843-.563-7.812l-2.563-2.563L411 389v-4Z"/>
  <path fill="#0BB5F2" d="M328 305c4 0 4 0 5.71 1.574l1.665 2.113c2.121 2.575 4.148 4.909 6.75 7 4.175 3.358 7.789 6.927 10.875 11.313l-1 2h-4v-2h-4v-2l2-1-2.563-2c-3.934-3.276-7.156-7.086-10.437-11l-1.555-1.848A806.208 806.208 0 0 1 328 305Z"/>
  <path fill="#098AF0" d="M601 456v2l-2 1.313c-2.303 1.543-2.303 1.543-2.25 4.375L597 466h2v4h-4v-5l-2.313 1.438C590 468 590 468 587 469v2h-2l-.875 1.938C583 475 583 475 581 476c1.526-5.381 5.14-8.839 8.875-12.813l1.895-2.1c.61-.653 1.219-1.308 1.847-1.982l1.675-1.807C597 456 597 456 601 456Z"/>
  <path fill="#0389DE" d="M722 677h3v2h2v2l2 1-1 2 2 1-3 1v2l-3.438.375L720 689l-1 2v-2h-4l1-3 4-1 1-3h2v3l2-1v-2l-2-1v-2l-2-1 1-1Zm-8 12 1 3h-2l1-3Z"/>
  <path fill="#10ABFA" d="M666 663h2l-1 4h-2l1 6-2.145.059c-4.276 1.41-5.979 4.435-8.543 8.004A198.728 198.728 0 0 1 650 688h-2c.574-4.145 2.969-7.02 5.438-10.25l1.236-1.68c1.056-1.398 2.186-2.74 3.326-4.07h2l.75-1.688c1.48-2.736 3.185-4.989 5.25-7.312Z"/>
  <path fill="#0DB8F8" d="m429 523 2.043 2.05a839.786 839.786 0 0 0 6.508 6.43l3.762 3.707 1.955 1.905 1.845 1.826c.555.544 1.11 1.088 1.681 1.65C448 542 448 542 448 544h3l2 6c-3.362-1.44-5.592-3.248-8-6v-2l-1.785-.766c-2.475-1.379-3.837-2.82-5.652-4.984l-1.813-2.152L434 532l-1.563-1.754C429 526.35 429 526.35 429 523Z"/>
  <path fill="#0AA5EE" d="M424 400c3.54.572 5.071 1.755 7.46 4.387l1.93 2.095 1.985 2.205c1.299 1.422 2.598 2.843 3.898 4.262l1.89 2.072c2.54 2.737 5.174 5.362 7.837 7.979l-1 3c-4.152-3.24-7.522-6.66-10.922-10.672-3.014-3.377-6.255-6.516-9.522-9.647-1.222-1.19-2.394-2.432-3.556-3.681v-2Z"/>
  <path fill="#0490F3" d="m662 323 2 3-3 4 3-2v2h2l1 3c-1.625 1.125-1.625 1.125-4 2a126.53 126.53 0 0 1-6-2l-3 1-1 3h-3c1.587-3.903 4.134-6.335 7.125-9.25l2.758-2.703L662 323Z"/>
  <path fill="#0F98E4" d="m688 367 1 4-3.063 1c-4.188 1.767-6.538 4.582-9.359 8.063-1.449 1.778-2.855 3.422-4.578 4.937h-2l-1 3-2-1c3.217-5.868 13.595-20 21-20Z"/>
  <path fill="#15A8EF" d="m612 567 2 1c-1.452 3.332-3.285 5.542-5.844 8.11l-2.277 2.285-2.379 2.355-2.379 2.402-2.277 2.27-2.088 2.08C595 589 595 589 593 589c1.37-2.95 2.878-5.525 5-8h2l.68-1.672c1.724-3.04 3.945-5.142 6.445-7.578l2.758-2.703L612 567Z"/>
  <path fill="#0B96F0" d="m702.839 291.978 2.972.061 3.2.082 3.284.072c3.464.076 6.928.16 10.392.245l7.042.158c5.757.129 11.514.264 17.271.404v1l-3.342.076c-4.166.095-8.331.195-12.497.296-1.789.043-3.578.085-5.367.125-10.957.25-21.865.654-32.794 1.503 2.81-4.214 5.097-4.131 9.839-4.022Z"/>
  <path fill="#0FADF4" d="M685 640h2c-1.715 3.966-4.348 7.194-7 10.563-2.421 3.095-4.818 6.164-7 9.437h-2v2h-2c.393-4.973 2.968-7.591 6.313-11 .976-1.02 1.952-2.04 2.925-3.063l1.425-1.48c1.265-1.378 2.42-2.854 3.567-4.332L685 640Z"/>
  <path fill="#099AEB" d="M442 689c3.395 1.455 5.711 3.08 8 6 .75 3.75.75 3.75 1 7h-4v-2h-2v-3l-4-1 1.063-1.813c1.27-2.295 1.27-2.295-.063-5.187Z"/>
  <path fill="#0AA2E9" d="m640 696 3 1c-1.22 4.472-2.57 6.901-6 10l-1 2h-3v2l-3-1c1.481-3.253 3.347-5.889 5.563-8.688l1.878-2.386C639 697 639 697 640 696Z"/>
  <path fill="#099CE8" d="m388 698 4 2-3 5 5 3-3 2-11-6 1-3 5 1v-2h2v-2Z"/>
  <path fill="#068DED" d="m468 565 3 2 1-2h3v2h2v2h2l2 5c-5.954.715-5.954.715-8.8-1.23-1.586-1.533-2.98-2.932-4.2-4.77v-3Z"/>
  <path fill="#0AAFF3" d="M502 762c3.09.343 4.324 1.26 6.813 3.25L511 768l-1 5-10-5 2-1v-5Z"/>
  <path fill="#0EA6EE" d="M696 619h2c1.544 6.804 1.544 6.804.145 9.879-1.275 1.803-2.626 3.462-4.082 5.121l-1.46 1.77A241.713 241.713 0 0 1 689 640l-2-4 1.715-1.941c5.757-6.687 5.757-6.687 7.285-15.059Z"/>
  <path fill="#02A3FD" d="M389 535h1v5h2v23h-1c-2.135-6.062-2.239-11.549-2.125-17.938l.027-2.939c.024-2.375.057-4.749.098-7.123Z"/>
  <path fill="#14AFF9" d="m638 741 1 3a1048.475 1048.475 0 0 1-7.063 4.375l-1.99 1.25c-4.254 2.599-8.092 4.226-12.947 5.375v-2l6-2v-2l2.438-1.188c4.25-2.162 8.405-4.475 12.562-6.812Z"/>
  <path fill="#0FB1F2" d="m695 482 2 1c-3.041 4.953-6.59 8.834-10.75 12.875l-1.824 1.797A1195.84 1195.84 0 0 1 680 502l-1-3c1.952-2.173 3.911-4.338 5.875-6.5l1.684-1.879 1.62-1.777 1.492-1.65C691 486 691 486 693 486v-2h2v-2Z"/>
  <path fill="#11AAF4" d="M752 661c-.51 4.206-2.833 6.266-5.75 9.188l-2.61 2.667c-2.702 2.195-4.223 2.832-7.64 3.145v-3a139.478 139.478 0 0 1 5-3 124.354 124.354 0 0 0 4.688-4.688C749.78 661 749.78 661 752 661Z"/>
  <path fill="#038DEF" d="M424 508h4l2 6-4 1v-3h-2c1.002 3.793 1.81 6.715 4 10-3.889-1.261-5.894-2.453-8-6v-2h2l.438-1.875C423 510 423 510 424 508Z"/>
  <path fill="#0292E7" d="M449 423c3.288 3.11 5.837 6.016 8 10h-3v-2c-1.64 1.64-1.601 3.778-2 6h-3l-.438-2.75c-.456-3.094-.456-3.094-1.25-5.375-.418-2.51.395-3.746 1.688-5.875Z"/>
  <path fill="#0DAEFC" d="M579 601h2c-.45 4.377-3.347 6.862-6.313 9.813l-1.474 1.56c-1.451 1.459-1.451 1.459-4.213 3.627-2.355-.176-2.355-.176-4-1 2.962-4.073 6.384-7.206 10.195-10.45 1.882-1.577 1.882-1.577 3.805-3.55Z"/>
  <path fill="#14AFF3" d="M677 720c-1.38 4.14-4.189 5.174-7.813 7.188l-1.908 1.115C663.841 730.247 662.036 731 658 731v-2c2.6-1.508 5.204-3.006 7.813-4.5.737-.43 1.475-.859 2.236-1.3l2.158-1.231 1.984-1.143C674 720 674 720 677 720Z"/>
  <path fill="#14ADF4" d="m637 542 1 3-15 15-3-1c5.235-6.243 10.677-11.853 17-17Z"/>
  <path fill="#0291EE" d="m545 626 1 3h-2v2h-2l1 2 2-1v2l4-1c-1.152 2.468-2.048 4.048-4 6h-3v-2h-2c-.176-3.875-.283-6.755 2-10l3-1Z"/>
  <path fill="#0AADF0" d="M392 483c5.79 2.359 8.906 6.796 12 12l3 2v2c-4.027-.514-5.53-2.387-8.063-5.438-2.272-2.717-3.967-4.582-6.937-6.562v-4Z"/>
  <path fill="#0E91DE" d="m618 557 3 1 1 3c-1.434 2.043-1.434 2.043-3.438 4.188l-1.996 2.167L615 569l-2-1c-.625-2.563-.625-2.563-1-5h2v-2h2l2-4Z"/>
  <path fill="#10AFF9" d="M655 525c-.577 3.169-1.416 4.782-3.723 7.016l-1.63 1.601-1.71 1.633-1.72 1.68A731.053 731.053 0 0 1 642 541l-3-1a1791.82 1791.82 0 0 1 6.875-7.5l1.973-2.168 1.894-2.05c.576-.63 1.152-1.258 1.746-1.905C653 525 653 525 655 525Z"/>
  <path fill="#0DB1FB" d="M349 675c4.288 3.347 7.794 6.925 11.32 11.063 2.116 2.44 4.362 4.689 6.68 6.937-4.816-.44-6.837-2.38-10.125-5.813l-2.57-2.644C349 678.69 349 678.69 349 675Z"/>
  <path fill="#12AFF5" d="M483 460c4.527.376 6.851 3.63 9.688 6.813l1.51 1.619c4.417 4.873 4.417 4.873 4.802 8.568-3.358-1.12-4.106-2.024-6.313-4.688-2.275-2.696-4.58-5.244-7.125-7.687C483 462 483 462 483 460Z"/>
  <path fill="#0695F2" d="m695 357 1 3 2-1v10h-2v-5l-9 2c5.75-6.75 5.75-6.75 8-9Z"/>
  <path fill="#19A9ED" d="M713 699c-4.176 4.698-9.133 8.744-15.5 9.313L695 708c3.185-2.76 6.561-5.077 10.125-7.313l2.57-1.613C710 698 710 698 713 699Z"/>
  <path fill="#0EA8F5" d="m391 565 1 2h-2v31h2v4h-2l-1 4v-40l2-1Z"/>
  <path fill="#038BED" d="m446 729 3 1v2h-2l-1 7 4 1v2c-3.958-.565-6.666-1.809-10-4l1.938-1.188c2.516-2.211 2.635-3.566 3.062-6.812l1-1Z"/>
  <path fill="#0EB6F5" d="M523 502c4.615 1.426 7.508 4.054 10.813 7.438l1.521 1.486C539 514.62 539 514.62 539 518c-4.202-1.597-6.774-4.727-9.688-8l-1.51-1.656c-3.653-4.045-3.653-4.045-4.802-6.344Z"/>
  <path fill="#1AC5FE" d="M580 770c1.875.375 1.875.375 4 1 2.681-.386 2.681-.386 5-1v2c-1.6.84-3.205 1.672-4.813 2.5l-2.707 1.406C579 777 579 777 576 777c.407-2.36.898-3.86 2.313-5.813L580 770Z"/>
  <path fill="#12A4F4" d="M488 746c3.214.288 4.093 1.1 6.36 3.504.788 1.01 1.577 2.019 2.39 3.058l2.422 3.067L501 758l-3 1c-7.966-7.77-7.966-7.77-10-11v-2Z"/>
  <path fill="#0AAEFD" d="M514 614c4.585 2.055 7.841 5.126 11 9 .938 2.938.938 2.938 1 5a85.132 85.132 0 0 1-13-13l1-1Z"/>
  <path fill="#0EB0F8" d="M454 551c5.558 2.264 9.67 7.132 13 12l-1 3a978.828 978.828 0 0 1-6-5.813l-1.734-1.658c-1.48-1.453-2.879-2.987-4.266-4.529v-3Z"/>
  <path fill="#0599F0" d="M409 502c3 1 3 1 4 3 2.322.407 4.657.744 7 1v2h-2l2 5c-3 0-3 0-4.79-1.39l-1.835-1.86-1.852-1.828c-1.597-2.016-2.112-3.41-2.523-5.922Z"/>
  <path fill="#14ACF7" d="m569 485 3 1h-2v2h-2v3l-2 1-1 3c-5.465 5-5.465 5-8 5 1.424-4.54 3.721-7.04 7.125-10.313l2.758-2.675L569 485Z"/>
  <path fill="#0391EA" d="m436.25 727.75 2.75.25v3l-2 1v2l3 1c-1.563.75-1.563.75-4 1-2.503-1.13-4.67-2.521-7-4 2.41-2.967 3.347-3.95 7.25-4.25Z"/>
  <path fill="#0EB6F5" d="m619 722 3 1c-3.388 4.692-6.782 9.03-11 13l-1-3c1.871-2.7 1.871-2.7 4.438-5.688l2.558-3.011L619 722Z"/>
  <path fill="#078ADE" d="m688 709 2 2c-1.457.98-2.916 1.96-4.375 2.938l-2.46 1.652C681 717 681 717 679 718c-1.134 2.017-1.134 2.017-2 4v-2l-4 1v-2h2v-2h2v-2c1.287-.697 2.58-1.382 3.875-2.063l2.18-1.16L685 711l2 1 1-3Z"/>
  <path fill="#12ACF2" d="M694.418 709.27 696 710c-2.248 1.46-4.499 2.919-6.75 4.375l-1.922 1.25c-3.042 1.964-6.03 3.86-9.328 5.375.105-1.73.105-1.73 1-4a59.32 59.32 0 0 1 6.313-4.313l1.763-1.126c4.321-2.628 4.321-2.628 7.342-2.291Z"/>
  <path fill="#0B94E1" d="M547 509v3l1 3c1 3 1 3 1 6l-2.313-1.438c-2.65-1.662-2.65-1.662-5.687-2.562 1.477-5.662 1.477-5.662 4.125-7.375L547 509Z"/>
  <path fill="#1283BB" d="M469 444c4.526 3.678 8.394 7.41 12 12-4.682-.457-6.631-2.191-9.813-5.563l-2.394-2.503L467 446l2-2Z"/>
  <path fill="#10A9ED" d="M322 647c3 0 3 0 4.824 1.68l1.863 2.195 1.887 2.18C332 655 332 655 332 657h2l2 4c-3.02-.323-3.892-.87-5.875-3.25L328 655a102.026 102.026 0 0 0-3.25-2.625L322 650v-3Z"/>
  <path fill="#0685DE" d="M456 546c2.438.75 2.438.75 5 2 .813 2.125.813 2.125 1 4l-2 1-1 2-5-4-1 2-2-3h2l1-2 2-2Z"/>
  <path fill="#0899DF" d="m664 508 1 2c3.03.658 3.03.658 6 1l-6 7-3-1c-.201-3.625.142-5.865 2-9Z"/>
  <path fill="#0D7DB9" d="M680 305c0 4.157-1.783 6.571-4.438 9.688C674 316 674 316 671.938 316.938c-2.393 1.312-2.941 2.572-3.937 5.062l-3-2 15-15Z"/>
  <path fill="#0689DD" d="m439 683 5 5-2 1 2 4-5 1-1-2 1-2h-2v-4h2v-3Z"/>
  <path fill="#098FD8" d="M722 677h3v2h2v2l2 1-1 2 2 1-3 1v2l-3 1-2-2 1.5-1.375c1.726-1.501 1.726-1.501 1.5-3.625l-2-1v-2l-2-1 1-1Z"/>
  <path fill="#0489E2" d="m481 456 2 1v2h2l-1 2-3 1v2h-6l2-7 4 1v-2Z"/>
  <path fill="#0699ED" d="m671 316 2 1-1 1-.375 3.188c-.627 3.823-1.742 6.456-3.625 9.812l-2-3 1-2-2-2v-3h3c1.717-2.445 1.717-2.445 3-5Z"/>
  <path fill="#13B7F0" d="M613 756v3c-1.41.844-2.829 1.675-4.25 2.5l-2.39 1.406C604 764 604 764 600 764c1-3 1-3 3.215-4.387l2.722-1.3 2.715-1.325C611 756 611 756 613 756Z"/>
  <path fill="#0487DB" d="m702 695 4 1v2l2-2c3.625.375 3.625.375 7 1l-1 2a99.768 99.768 0 0 1-6 1l-2.188.563C704 701 704 701 701 701l1-6Z"/>
  <path fill="#0EA7F0" d="M441 538c3.243.56 4.93 1.413 7 4v2h3l2 6c-3.362-1.44-5.592-3.248-8-6v-2l-4-2v-2Z"/>
  <path fill="#0783ED" d="M558 495c0 3 0 3-1 5h2v2h2v2h-2l-1 2-2-1v2l-3-1c.492-6.4.492-6.4 3.063-9.438L558 495Z"/>
  <path fill="#068DDD" d="m407 489 3 2-1 2h-2v3h2l1 6h-3l-2-3h2v-2l-3-1 1-5h2v-2Z"/>
  <path fill="#0A85B5" d="M391 365c4.526 3.678 8.394 7.41 12 12l-3 1v-2h-2v-2l-1.813-.813c-2.23-1.21-3.642-2.178-5.187-4.187v-4Z"/>
  <path fill="#0DB7F7" d="M452 742c3.487 1.11 6.775 2.263 10 4v2l4 2c-3 1-3 1-5.7-.215l-2.988-1.722-3.011-1.715L452 745v-3Z"/>
  <path fill="#14B1F7" d="m768 645 1 3-9 9-3-2c1.268-1.295 2.54-2.586 3.813-3.875l2.144-2.18C765 647 765 647 768 645Z"/>
  <path fill="#10B2FA" d="M497 596c3.362 1.44 5.592 3.248 8 6v2l3 1-2 3a564.22 564.22 0 0 1-4.5-4.313l-2.531-2.425C497 599 497 599 497 596Z"/>
  <path fill="#0FACF6" d="M337 662a105.022 105.022 0 0 1 5 4v2l1.875.75c2.476 1.456 3.076 2.628 4.125 5.25-3.509-.582-5.25-1.817-7.75-4.313l-1.86-1.8C337 666 337 666 337 662Z"/>
  <path fill="#0389E3" d="m692 294 3 1c1.561.067 3.125.085 4.688.063l2.449-.028L704 295v2h-2v2h-2v-2c-3.558.61-6.683 1.578-10 3v-2l-2-1c1.813-1.563 1.813-1.563 4-3Z"/>
  <path fill="#0EA6E9" d="M430 674c2.465.39 3.733.732 5.52 2.523l1.293 1.852 1.332 1.836C439 682 439 682 438 685c-2.826-1.036-3.81-1.6-5.125-4.375L432 678a174.883 174.883 0 0 0-2-4Z"/>
  <path fill="#11AAF2" d="M678 376c0 3 0 3-1.242 4.605l-1.633 1.582-1.617 1.606C672 385 672 385 670 385l-1 3-2-1c2.793-5.027 5.627-8.697 11-11Z"/>
  <path fill="#0498ED" d="m398 376 6 1v3l-2 1a101.168 101.168 0 0 0-2 6l-.375-1.938L399 383l-2-1 1-6Z"/>
  <path fill="#0EB4EC" d="M690 298c-1.477 3.452-3.438 5.65-6.125 8.25l-2.195 2.14L680 310c0-4.492 2.121-6.984 5-10.313 2-1.687 2-1.687 5-1.687Z"/>
  <path fill="#11ACF8" d="M406 644c3.418.253 4.277 1.284 6.75 3.813C415 651 415 651 415 655h-2c-1.727-1.898-1.727-1.898-3.625-4.375l-1.914-2.46C406 646 406 646 406 644Z"/>
  <path fill="#11A7E7" d="M484 759c2.338.99 4.67 1.99 7 3l2.375 1c1.625 1 1.625 1 2.625 4-4.131-.608-7.433-1.811-11-4-.875-2.188-.875-2.188-1-4Z"/>
  <path fill="#13B6FC" d="M653 734v2c-2.336 1.727-2.336 1.727-5.375 3.625l-3.023 1.914C642 743 642 743 640 743c.191-1.828.191-1.828 1-4 2.215-1.484 2.215-1.484 4.938-2.75l2.714-1.297C651 734 651 734 653 734Z"/>
  <path fill="#0B98DD" d="m651 685 2 2c-1.813 2-1.813 2-4 4h-3l-.813 1.938C644 695 644 695 641 696c1.652-3.579 3.783-6.748 6-10l1 2 3-3Z"/>
  <path fill="#0B83B5" d="M507 483c1.126.957 2.25 1.916 3.375 2.875l1.898 1.617A75.822 75.822 0 0 1 516 491v3c-3.83-1.56-6.322-3.876-9-7v-4Z"/>
  <path fill="#0C9BE6" d="M759 656v2c-1.531 1.29-1.531 1.29-3.5 2.625l-1.969 1.352L752 663l-2-5h3v-2c2.49-1.245 3.41-.777 6 0Z"/>
  <path fill="#12B3F9" d="M603 745c-.507 4.398-3.083 6.87-6 10h-2c.385-4.49 2.855-10 8-10Z"/>
  <path fill="#068EDE" d="M664 321c2.063 2.188 2.063 2.188 4 5-.25 2.813-.25 2.813-1 5l-1.75-1.125c-2.25-1.167-2.25-1.167-4.5 0L659 331l1.938-2.75c1.676-2.642 2.599-4.24 3.062-7.25Z"/>
  <path fill="#0BA2EC" d="M666 663h2l-1 4h-2l1 6-6-1c1.528-3.438 3.502-6.19 6-9Z"/>
  <path fill="#0598EC" d="M669 503c1.414 2.639 2.372 5.071 3 8l-7-1-1-3 1.938-.313L668 506l1-3Z"/>
  <path fill="#0E9CEA" d="m607 738 2 1-2 7-4 1-1-3c1.404-2.264 3.197-4.02 5-6Z"/>
  <path fill="#0C90DA" d="M488 584h3l1 4h2c.625 2.375.625 2.375 1 5l-2 2c-2.174-2.646-3.35-4.642-4-8l-1-3Z"/>
  <path fill="#0FA8FA" d="m600 579 4 1a864.517 864.517 0 0 1-4.375 4.5l-2.46 2.531C595 589 595 589 593 589c1.37-2.95 2.878-5.525 5-8h2v-2Z"/>
  <path fill="#0BA4E6" d="m705 293 3 2-15 1c3.353-5.03 6.5-4.08 12-3Z"/>
  <path fill="#13B7F7" d="m593 756 2 1-9 11-1-2c1.978-4.065 4.737-6.914 8-10Z"/>
  <path fill="#14AEF7" d="M724 688c-1.592 4.3-4.355 6.397-8 9l-3-1a141.4 141.4 0 0 1 5-5h2v-2c2-1 2-1 4-1Z"/>
  <path fill="#0FA8E8" d="m395 629 7 7v3c-3.689-.997-4.806-1.69-6.875-5L394 631l1-2Z"/>
  <path fill="#0FB2F7" d="m704 349 3 1c-3.804 3.92-7.816 7.491-12 11 1.453-5.327 5.081-8.364 9-12Z"/>
  <path fill="#0EA6F5" d="m733 675 2 1c-.37 2.741-.686 4.586-2.375 6.813C731 684 731 684 728 684c1.498-3.112 3.2-6.053 5-9Z"/>
  <path fill="#0378BB" d="m485 576 4 2-1 3-1-1-1 2h-2l-1 2-4-5 6 1v-4Z"/>
  <path fill="#079AEB" d="m381 357 4 1 1 5h-2v2h-2v2h-2l.5-2.75c.601-3.36.601-3.36.5-7.25Z"/>
  <path fill="#16C1FB" d="M319 295c4.008 2.004 5.414 3.49 8 7-3.517 0-4.371-.824-7-3v5h-1v-9Z"/>
  <path fill="#0EABF5" d="M417 723c4.75.875 4.75.875 7 2v2l3 1c-1.563.75-1.563.75-4 1-2.503-1.13-4.67-2.521-7-4l1-2Z"/>
  <path fill="#1191C8" d="m678 500 1 3c-1.313 2.188-1.313 2.188-3 4h-2l-1 3-3-1c.957-1.126 1.916-2.25 2.875-3.375l1.617-1.898A75.822 75.822 0 0 1 678 500Z"/>
  <path fill="#0DAFF1" d="m578 475 2 3a376.146 376.146 0 0 1-2.875 3l-1.617 1.688C574 484 574 484 572 484c.472-4.248 2.967-6.2 6-9Z"/>
  <path fill="#04A6F2" d="m349 323 4 4-1 2h-4v-2h-4v-2h5v-2Z"/>
  <path fill="#0FB0F8" d="M628 711h2c-.505 4.379-3.178 6.817-6 10l-2-2c.95-1.339 1.91-2.671 2.875-4l1.617-2.25L628 711Z"/>
  <path fill="#1197DF" d="M388 551h1a681.79 681.79 0 0 1 1.563 5.813l.878 3.269C392 563 392 563 391 566h-2l-1-15Z"/>
  <path fill="#10B4F8" d="M601 456v2c-1.75 1.508-1.75 1.508-4 3.125l-2.25 1.633L593 464c.365-2.702.699-4.584 2.313-6.813C597 456 597 456 601 456Z"/>
  <path fill="#09B2F9" d="M440 416c3.817 1.555 6.192 4.036 9 7l-1 3c-6.571-5-6.571-5-8-10Z"/>
  <path fill="#0182E3" d="m698 296 1 5-7 1c.313-1.875.313-1.875 1-4 3-2 3-2 5-2Z"/>
  <path fill="#0DA4EB" d="M454 704h3c1.387 1.46 1.387 1.46 2.688 3.375l1.324 1.898C462 711 462 711 462 713c-3.794-1.49-5.683-3.69-8-7v-2Z"/>
  <path fill="#08A0EC" d="m553 624 4 1-1.938 1.813c-2.265 2.095-2.265 2.095-3.062 5.187h-3l1-6h3v-2Z"/>
  <path fill="#0B98CF" d="M507 606a271.11 271.11 0 0 1 3.5 2.813l1.969 1.582C514 612 514 612 514 615c-3.354-1.388-5.113-2.886-7-6v-3Z"/>
  <path fill="#0EB4EF" d="M424 400c3.257.561 4.956 1.372 7 4 .688 2.188.688 2.188 1 4-3.362-1.44-5.592-3.248-8-6v-2Z"/>
  <path fill="#0897EB" d="m387 363 4 1-1 4-2-1-2 4-2-3 3-5Z"/>
  <path fill="#0B9EDE" d="M660 731c-2.25 2.063-2.25 2.063-5 4-2.313-.25-2.313-.25-4-1l1-3c2.862-1.43 4.934-.6 8 0Z"/>
  <path fill="#0CA3F6" d="m673 653 2 1c-.506 2.169-1 4-2 6h-2v2h-2c.53-3.821 1.497-6.062 4-9Z"/>
  <path fill="#06C6FB" d="M391 604h1v9h-2l-1 4v-10h2v-3Z"/>
  <path fill="#10BEF4" d="m656 329 2 3-1.938.813c-2.393 1.074-2.393 1.074-3.062 4.187h-3c1.443-3.366 3.333-5.51 6-8Z"/>
  <path fill="#13B3F9" d="M599 765c-2.116 2.327-4.05 3.858-7 5l-2-1v-2c5.625-3.125 5.625-3.125 9-2Z"/>
  <path fill="#0EAEF4" d="M440 737c4.242-.364 6.582.46 10 3v2c-3.949-.564-6.709-1.743-10-4v-1Z"/>
  <path fill="#0FA8F7" d="M315 638c4.688 3.613 4.688 3.613 6 5v3c-3.83-1.453-5.12-3.429-7-7l1-1Z"/>
  <path fill="#0FBAFC" d="M533 636c3.674.306 4.781.758 7.313 3.563L542 642c-3.674-.306-4.781-.758-7.313-3.563L533 636Z"/>
  <path fill="#0C8ED0" d="M564 616c2.313.188 2.313.188 4 1l-4.492 3.71c-1.219 1.043-2.375 2.157-3.508 3.29l-1-3c2.25-2.563 2.25-2.563 5-5Z"/>
  <path fill="#0CB5F4" d="M468 565a564.67 564.67 0 0 1 3.375 2.813l1.898 1.582C475 571 475 571 477 574c-4.252-.472-6.3-2.85-9-6v-3Z"/>
  <path fill="#12A9F5" d="m589 465 1 3-3 1v2h-2l-.875 1.938C583 475 583 475 581 476c1.473-5.01 4.275-7.518 8-11Z"/>
  <path fill="#11B6FA" d="m471 753 9 3v3c-6.75-2.875-6.75-2.875-9-4v-2Z"/>
  <path fill="#0FB2F3" d="M488 746c2.867.573 3.861.861 6 3v4c-3.412-1.137-4.119-2.043-6-5v-2Z"/>
  <path fill="#0988E2" d="m609 734 7 2v2h-2v2h-2v-3h-2l-1 2-2-2 2-3Z"/>
  <path fill="#0E92D3" d="m392 709 7 1 2 5c-3.083-1.199-6.063-2.477-9-4v-2Z"/>
  <path fill="#0891E2" d="M539 632h1v5h2v2l2 1h-4c-1.75-2-1.75-2-3-4l2-4Z"/>
  <path fill="#0FB7F8" d="M484 582c3.83 1.453 5.12 3.429 7 7-3 0-3 0-5.188-1.813C484 585 484 585 484 582Z"/>
  <path fill="#07B5FC" d="m389 483 2 1c.594 2.649.742 5.292 1 8l-3 1v-10Z"/>
  <path fill="#0994D7" d="M426 725c2.625.938 2.625.938 5 2v4l-6-1 1-2-2-2 2-1Z"/>
  <path fill="#0EBBFA" d="m640 696 3 1-5 6-3-1 5-6Z"/>
  <path fill="#10A9EE" d="M372 696h6l-1 3 3 1v1c-2.313.313-2.313.313-5 0-1.813-2.5-1.813-2.5-3-5Z"/>
  <path fill="#129EFB" d="m775 638 3 2h-2l-.813 1.875C774 644 774 644 771 646c.498-3.688 1.1-5.605 4-8Z"/>
  <path fill="#06A1F1" d="M483 572h2l-1 3-1-3Zm1 4-1 4c-1.938-.313-1.938-.313-4-1l-1-3c3-1 3-1 6 0Z"/>
  <path fill="#0FB3FC" d="M420 514c4.206 1.502 5.739 4.286 8 8-3.889-1.261-5.894-2.453-8-6v-2Z"/>
  <path fill="#0895EF" d="m466 441 3 2-1 4h-2v2l-3-1 3-7Z"/>
  <path fill="#0584CC" d="m385 359 4 4h-2l-1 3c-2.063.688-2.063.688-4 1v-2h2l-1-3 2-1v-2Z"/>
  <path fill="#068BDA" d="m629 709 6 3v2l-6 1v-6Z"/>
  <path fill="#0EB4ED" d="m710 698 3 1c-2.363 2.526-3.665 3.888-7 5l-1-3c2.313-1.563 2.313-1.563 5-3Z"/>
  <path fill="#06CBFE" d="M389 550h2c1.102 4.41 1.077 8.484 1 13h-1c-1.452-4.537-2.235-8.18-2-13Z"/>
  <path fill="#0D89CE" d="m554 500 1 4c-1.813 1.563-1.813 1.563-4 3l-3-1 6-6Z"/>
  <path fill="#0A9FE5" d="M405 380c2.622 1.049 3.794 1.65 5.25 4.125L411 386c-3 0-3 0-4.688-1.313C405 383 405 383 405 380Z"/>
  <path fill="#0B83BC" d="M376 352c2.886.398 3.822.79 5.75 3.063L383 357l-4 1c-3-3.75-3-3.75-3-6Z"/>
  <path fill="#0FB1F9" d="M429 731c4.39.51 7.337 1.522 11 4-1.563.75-1.563.75-4 1-2.503-1.13-4.67-2.521-7-4v-1Z"/>
  <path fill="#16A1EC" d="m741 670 1 4c-3 2-3 2-6 2v-3c2.5-1.688 2.5-1.688 5-3Z"/>
  <path fill="#11A7E6" d="M687 640c-1.37 2.95-2.878 5.525-5 8h-2c2.81-8 2.81-8 7-8Z"/>
  <path fill="#0C7FB5" d="M559 624c-1.393 3.367-2.979 4.986-6 7l-1-3c3.625-4 3.625-4 7-4Z"/>
  <path fill="#078ADB" d="M580 592c3 1 3 1 4.063 3l.937 2 2 1c-4.75.125-4.75.125-7-1v-5Z"/>
  <path fill="#0A8CDD" d="M499 475c2 1.375 2 1.375 4 3v2l3 1-1 2c-3-1.75-3-1.75-6-4v-4Z"/>
  <path fill="#0580D5" d="m481 456 2 1v2h2l-1 2-3 1v2h-2v-4h3l-1-4Z"/>
  <path fill="#0BABF7" d="M451 427c2.993 1.098 3.846 1.677 5.25 4.625L457 434l-3-1v-2l-4-2 1-2Z"/>
  <path fill="#0D80B2" d="m411 385 6 5c-1.813.688-1.813.688-4 1-1.75-1.438-1.75-1.438-3-3l1-3Z"/>
  <path fill="#0C8DD2" d="M370 347c2.375.25 2.375.25 5 1 1.313 2.063 1.313 2.063 2 4h-3c-2.188-2.5-2.188-2.5-4-5Z"/>
  <path fill="#0EC1FE" d="m662 323 2 3a90.488 90.488 0 0 1-4 4h-2c.564-3.27 1.5-4.826 4-7Z"/>
  <path fill="#07A1F2" d="M412 719h6l1 2c-1.813 1.063-1.813 1.063-4 2l-3-1v-3Z"/>
  <path fill="#0C92D9" d="M450 697c4.875 4.75 4.875 4.75 6 7h-2l-1 2-3-9Z"/>
  <path fill="#0893DE" d="M380 696h2v2h2v2c-2.5 1.625-2.5 1.625-5 3l-2-2h3v-5Z"/>
  <path fill="#0FBDF9" d="M322 647h3c2 3 2 3 1.625 5.188L326 654c-4-4.75-4-4.75-4-7Z"/>
  <path fill="#11A9EE" d="M534 512c1.938.75 1.938.75 4 2 .75 2.125.75 2.125 1 4-3.161-1.37-3.993-1.99-6-5l1-1Z"/>
  <path fill="#04ABFC" d="M412 507c3.255.349 4.019 1.021 6.25 3.563L420 513c-3 0-3 0-4.387-1.313L412 507Z"/>
  <path fill="#11B1DC" d="m577 773 3 1c2.638-.394 2.638-.394 5-1-2.938 2.503-5.179 3.47-9 4l1-4Z"/>
  <path fill="#13A3ED" d="M419 660c3.83 1.453 5.12 3.429 7 7h-3l-4-7Z"/>
  <path fill="#0393FE" d="M390 613h2v9l-3-2 1-7Z"/>
  <path fill="#13A0E6" d="M454 551c3.161 1.37 3.993 1.99 6 5l-3 1c-1.5-1.313-1.5-1.313-3-3v-3Z"/>
  <path fill="#05A7F2" d="M541 513c1.04 3.38 1.08 6.478 1 10h-2c-1.467-3.815-.433-6.29 1-10Z"/>
  <path fill="#0EA9FD" d="M608 448v2h-2v2h-2l-1 3-3-1a376.146 376.146 0 0 1 2.875-3l1.617-1.688C606 448 606 448 608 448Z"/>
  <path fill="#0897EF" d="m608 449 2 1v2c-2.375 1.688-2.375 1.688-5 3l-2-1 1-2h2v-2l2-1Z"/>
  <path fill="#107DC6" d="m469 444 5 5-3 1-4-5 2-1Z"/>
  <path fill="#0E96F5" d="m624 430 2 2c-1.188 2-1.188 2-3 4-2.688.25-2.688.25-5 0l6-6Z"/>
  <path fill="#0792C6" d="m363 338 3 1v2l3 1-3 2-4-5 1-1Z"/>
  <path fill="#0DA3F4" d="M690 298c-1.37 3.161-1.99 3.993-5 6l-1-3c2.625-3 2.625-3 6-3Z"/>
  <path fill="#12AEF8" d="m484 759 7 3-4 2c-1.5-1.375-1.5-1.375-3-3v-2Z"/>
  <path fill="#09B6F5" d="m381 701 6 3-3 2-4-2 1-3Z"/>
  <path fill="#0690E1" d="m668 660 1 2h2v-2h2c-1.37 3.161-1.99 3.993-5 6-1.125-3.75-1.125-3.75 0-6Z"/>
  <path fill="#12B4F0" d="M549 633c-1.152 2.468-2.048 4.048-4 6l-3-1c4.75-5 4.75-5 7-5Z"/>
  <path fill="#0B84D9" d="M614 561h2c-.506 2.169-1 4-2 6l2 1h-3l-1-5h2v-2Z"/>
  <path fill="#0E9EF0" d="m475 455 6 1 1 4-2.313-1c-2.678-1.174-2.678-1.174-5.687-1l1-3Z"/>
  <path fill="#0FB9F7" d="M629 424h2c-.188 1.813-.188 1.813-1 4-2.563 1.75-2.563 1.75-5 3a56.54 56.54 0 0 1 4-7Z"/>
  <path fill="#0DA1F2" d="M686 367h2l1 4-6 2c1.875-4.875 1.875-4.875 3-6Z"/>
  <path fill="#0A81AE" d="m355 329 5 5-3 1-3-3 1-3Z"/>
  <path fill="#088DD1" d="m692 294 2 1-2 5h-2v-2l-2-1 4-3Z"/>
</svg>
